<?xml version="1.0" encoding="UTF-8" standalone="no"?>
<!-- Created with Inkscape (http://www.inkscape.org/) -->

<svg
   xmlns:dc="http://purl.org/dc/elements/1.1/"
   xmlns:cc="http://creativecommons.org/ns#"
   xmlns:rdf="http://www.w3.org/1999/02/22-rdf-syntax-ns#"
   xmlns:svg="http://www.w3.org/2000/svg"
   xmlns="http://www.w3.org/2000/svg"
   xmlns:sodipodi="http://sodipodi.sourceforge.net/DTD/sodipodi-0.dtd"
   xmlns:inkscape="http://www.inkscape.org/namespaces/inkscape"
   width="145mm"
   height="140mm"
   viewBox="0 0 145 140"
   version="1.1"
   id="svg8"
   inkscape:version="0.92.1 r15371"
   sodipodi:docname="logo.svg">
  <defs
     id="defs2" />
  <sodipodi:namedview
     id="base"
     pagecolor="#ffffff"
     bordercolor="#666666"
     borderopacity="1.0"
     inkscape:pageopacity="0"
     inkscape:pageshadow="2"
     inkscape:zoom="0.35"
     inkscape:cx="-560"
     inkscape:cy="548.57142"
     inkscape:document-units="mm"
     inkscape:current-layer="layer1"
     showgrid="false"
     inkscape:window-width="1920"
     inkscape:window-height="1009"
     inkscape:window-x="0"
     inkscape:window-y="0"
     inkscape:window-maximized="1" />
  <metadata
     id="metadata5">
    <rdf:RDF>
      <cc:Work
         rdf:about="">
        <dc:format>image/svg+xml</dc:format>
        <dc:type
           rdf:resource="http://purl.org/dc/dcmitype/StillImage" />
        <dc:title></dc:title>
      </cc:Work>
    </rdf:RDF>
  </metadata>
  <g
     inkscape:label="Layer 1"
     inkscape:groupmode="layer"
     id="layer1"
     transform="translate(0,-157)">
    <path
       style="fill:#000000;stroke-width:0.35277778"
       d="m 121.54888,296.69335 c -4.5441,-1.24914 -9.27361,-5.05208 -11.44709,-9.20446 -6.54907,-12.51184 2.45361,-27.30745 16.61577,-27.30745 7.78876,0 15.19881,5.50119 17.54771,13.02734 0.93611,2.99938 1.00941,7.52843 0.16886,10.43239 -1.84576,6.37672 -6.58838,11.17312 -12.87315,13.01913 -2.32086,0.6817 -7.58919,0.69909 -10.0121,0.0331 z m -46.280121,-5.60874 c -3.313881,-1.46053 -5.011701,-5.70217 -3.522911,-8.80124 0.29372,-0.61141 2.770001,-3.8104 5.502851,-7.10887 6.18431,-7.46429 6.16596,-7.43772 5.60332,-8.11566 -0.24074,-0.29007 -0.85483,-0.53304 -1.36465,-0.53993 -0.50982,-0.007 -17.357571,1.83782 -37.439445,4.09938 -39.5315705,4.45191 -37.8815405,4.34934 -40.5912505,2.52327 -0.65268,-0.43985 -1.66825,-1.48489 -2.25682,-2.32232 -0.92684996,-1.31874 -1.08520996,-1.88482 -1.18277996,-4.22811 -0.10576,-2.5398 -0.041,-2.82236 1.05700996,-4.61295 0.84443,-1.37703 1.67402,-2.18977 2.98342,-2.92281 l 1.81375,-1.01538 36.1098605,-2.79693 c 19.86043,-1.53831 36.610475,-2.88643 37.222335,-2.99582 1.26348,-0.22588 1.68006,-0.90346 1.06817,-1.73744 -0.22921,-0.31241 -10.492571,-8.30502 -22.807465,-17.76137 -24.86522,-19.09348 -24.27313,-18.54575 -24.61204,-22.76791 -0.30282,-3.77242 1.06621,-6.58033 4.27636,-8.77092 1.64414,-1.12196 1.87416,-1.1767 4.93931,-1.17542 2.32075,0.001 3.5092,0.16305 4.27319,0.58277 0.58209,0.31978 10.40086,8.85879 21.819494,18.97556 11.418641,10.11678 21.151591,18.64997 21.628801,18.96265 0.75911,0.49738 0.93182,0.50432 1.38067,0.0555 0.44884,-0.44884 0.005,-4.99002 -3.54894,-36.30179 -2.23408,-19.68382 -4.06196,-36.54818 -4.06196,-37.47635 0,-4.56404 3.56944,-8.01493 8.29028,-8.01493 3.5282,0 6.43589,1.8813 7.73989,5.00777 0.3984,0.95521 1.298851,10.9898 3.369271,37.54705 1.55406,19.93389 2.82556,36.51437 2.82556,36.84551 0,1.00514 1.20718,2.24236 1.83273,1.87833 0.29879,-0.17389 2.56542,-2.77678 5.03695,-5.78421 5.79304,-7.04917 6.43083,-7.71669 8.12337,-8.502 1.78369,-0.8276 3.49131,-0.83156 5.2947,-0.0123 3.1388,1.42593 4.67005,4.70046 3.70921,7.93205 -0.51335,1.72656 0.66962,0.24025 -23.62775,29.6864 -23.585781,28.58378 -23.423261,28.39413 -25.166241,29.36876 -1.61773,0.90459 -4.05582,1.03237 -5.71825,0.29969 z"
       id="path4552"
       inkscape:connector-curvature="0" />
  </g>
</svg>
